<mxfile host="app.diagrams.net" modified="2020-09-11T09:33:35.023Z" agent="5.0 (Windows NT 10.0; Win64; x64) AppleWebKit/537.36 (KHTML, like Gecko) Chrome/85.0.4183.102 Safari/537.36" etag="q_LCR1g13LcmQUpc_Eg3" version="13.6.9" type="github">
  <diagram id="GWEeNumrINrzTQ22G5ji" name="ページ1">
    <mxGraphModel dx="1117" dy="1054" grid="1" gridSize="10" guides="1" tooltips="1" connect="1" arrows="1" fold="1" page="1" pageScale="1" pageWidth="827" pageHeight="1169" math="1" shadow="0">
      <root>
        <mxCell id="0" />
        <mxCell id="1" parent="0" />
        <mxCell id="ISlcmJgeb__mbXeuOqbF-3" value="ap-northeast-1c" style="fillColor=none;strokeColor=#147EBA;dashed=1;verticalAlign=top;fontStyle=0;fontColor=#147EBA;shadow=1;" parent="1" vertex="1">
          <mxGeometry x="290" y="470" width="170" height="435.24" as="geometry" />
        </mxCell>
        <mxCell id="ISlcmJgeb__mbXeuOqbF-8" value="ap-northeast-1a" style="fillColor=none;strokeColor=#147EBA;dashed=1;verticalAlign=top;fontStyle=0;fontColor=#147EBA;shadow=1;" parent="1" vertex="1">
          <mxGeometry x="80" y="474.3" width="170.52" height="430.94" as="geometry" />
        </mxCell>
        <mxCell id="ISlcmJgeb__mbXeuOqbF-2" value="VPC" style="outlineConnect=0;gradientColor=none;html=1;whiteSpace=wrap;fontSize=12;fontStyle=0;shape=mxgraph.aws4.group;grIcon=mxgraph.aws4.group_vpc;strokeColor=#879196;fillColor=none;verticalAlign=top;align=left;spacingLeft=30;fontColor=#879196;dashed=0;" parent="1" vertex="1">
          <mxGeometry x="30" y="410" width="500.82" height="530" as="geometry" />
        </mxCell>
        <mxCell id="ISlcmJgeb__mbXeuOqbF-14" value="Subnet" style="outlineConnect=0;gradientColor=none;html=1;whiteSpace=wrap;fontSize=12;fontStyle=0;shape=mxgraph.aws4.group;grIcon=mxgraph.aws4.group_subnet;strokeColor=#879196;fillColor=none;verticalAlign=top;align=left;spacingLeft=30;fontColor=#879196;dashed=0;" parent="1" vertex="1">
          <mxGeometry x="57.49999999999997" y="440" width="440" height="220" as="geometry" />
        </mxCell>
        <mxCell id="ISlcmJgeb__mbXeuOqbF-11" value="Security group" style="fillColor=none;strokeColor=#DD3522;verticalAlign=top;fontStyle=0;fontColor=#DD3522;shadow=1;" parent="1" vertex="1">
          <mxGeometry x="92.5" y="490" width="355" height="150" as="geometry" />
        </mxCell>
        <mxCell id="ISlcmJgeb__mbXeuOqbF-1" value="AWS Cloud" style="outlineConnect=0;gradientColor=none;html=1;whiteSpace=wrap;fontSize=12;fontStyle=0;shape=mxgraph.aws4.group;grIcon=mxgraph.aws4.group_aws_cloud;strokeColor=#AAB7B8;fillColor=none;verticalAlign=top;align=left;spacingLeft=30;fontColor=#AAB7B8;dashed=0;" parent="1" vertex="1">
          <mxGeometry y="170" width="570" height="790" as="geometry" />
        </mxCell>
        <mxCell id="ISlcmJgeb__mbXeuOqbF-15" value="RDS Subnet group" style="outlineConnect=0;gradientColor=none;html=1;whiteSpace=wrap;fontSize=12;fontStyle=0;shape=mxgraph.aws4.group;grIcon=mxgraph.aws4.group_subnet;strokeColor=#879196;fillColor=none;verticalAlign=top;align=left;spacingLeft=30;fontColor=#879196;dashed=0;" parent="1" vertex="1">
          <mxGeometry x="60.41" y="680" width="437.09" height="240.62" as="geometry" />
        </mxCell>
        <mxCell id="ISlcmJgeb__mbXeuOqbF-10" value="Security group" style="fillColor=none;strokeColor=#DD3522;verticalAlign=top;fontStyle=0;fontColor=#DD3522;shadow=1;" parent="1" vertex="1">
          <mxGeometry x="90" y="710" width="360" height="170" as="geometry" />
        </mxCell>
        <mxCell id="ISlcmJgeb__mbXeuOqbF-6" value="Wubdws Server 2016&lt;br&gt;10.0.0.0/24&lt;br&gt;" style="outlineConnect=0;dashed=0;verticalLabelPosition=bottom;verticalAlign=top;align=center;html=1;shape=mxgraph.aws3.ec2;fillColor=#F58534;gradientColor=none;" parent="1" vertex="1">
          <mxGeometry x="123.46999999999996" y="511.3" width="76.5" height="93" as="geometry" />
        </mxCell>
        <mxCell id="ISlcmJgeb__mbXeuOqbF-20" style="edgeStyle=orthogonalEdgeStyle;rounded=0;orthogonalLoop=1;jettySize=auto;html=1;entryX=0.5;entryY=1;entryDx=0;entryDy=0;entryPerimeter=0;startArrow=classic;startFill=1;" parent="1" source="ISlcmJgeb__mbXeuOqbF-7" target="ISlcmJgeb__mbXeuOqbF-6" edge="1">
          <mxGeometry relative="1" as="geometry" />
        </mxCell>
        <mxCell id="ISlcmJgeb__mbXeuOqbF-7" value="RDS for Oracle&lt;br&gt;10.0.2.0/24" style="outlineConnect=0;dashed=0;verticalLabelPosition=bottom;verticalAlign=top;align=center;html=1;shape=mxgraph.aws3.oracle_db_instance_2;fillColor=#2E73B8;gradientColor=none;" parent="1" vertex="1">
          <mxGeometry x="119.57999999999993" y="755.31" width="84.25" height="90" as="geometry" />
        </mxCell>
        <mxCell id="ISlcmJgeb__mbXeuOqbF-46" style="edgeStyle=orthogonalEdgeStyle;rounded=0;orthogonalLoop=1;jettySize=auto;html=1;entryX=0.214;entryY=0.133;entryDx=0;entryDy=0;entryPerimeter=0;startArrow=none;startFill=0;" parent="1" source="ISlcmJgeb__mbXeuOqbF-16" target="ISlcmJgeb__mbXeuOqbF-11" edge="1">
          <mxGeometry relative="1" as="geometry" />
        </mxCell>
        <mxCell id="ISlcmJgeb__mbXeuOqbF-16" value="" style="outlineConnect=0;dashed=0;verticalLabelPosition=bottom;verticalAlign=top;align=center;html=1;shape=mxgraph.aws3.internet_gateway;fillColor=#F58536;gradientColor=none;" parent="1" vertex="1">
          <mxGeometry x="390" y="60" width="77.01" height="80" as="geometry" />
        </mxCell>
        <mxCell id="ISlcmJgeb__mbXeuOqbF-17" value="&lt;h1&gt;Subnet&lt;/h1&gt;&lt;font style=&quot;font-size: 14px&quot;&gt;VPC&amp;nbsp; &amp;nbsp; &amp;nbsp; &amp;nbsp; &amp;nbsp; &amp;nbsp; &amp;nbsp; &amp;nbsp; &amp;nbsp; &amp;nbsp; &amp;nbsp; &amp;nbsp; &amp;nbsp; &amp;nbsp; &amp;nbsp; &amp;nbsp; &amp;nbsp; 10.0.0.0/16&lt;br&gt;EC2 Subnet1&amp;nbsp; &amp;nbsp; &amp;nbsp; &amp;nbsp; &amp;nbsp; &amp;nbsp; &amp;nbsp; &amp;nbsp; &amp;nbsp; &amp;nbsp; 10.0.0.0/24&amp;nbsp; &amp;nbsp; &amp;nbsp;sb-1a-om-ec2&lt;br&gt;EC2 Subnet2&amp;nbsp; &amp;nbsp; &amp;nbsp; &amp;nbsp; &amp;nbsp; &amp;nbsp; &amp;nbsp; &amp;nbsp; &amp;nbsp; &amp;nbsp; 10.0.1.0/24&amp;nbsp; &amp;nbsp; &amp;nbsp;sb-1c-om-ec2&lt;br&gt;RDS Subnet3&amp;nbsp; &amp;nbsp; &amp;nbsp; &amp;nbsp; &amp;nbsp; &amp;nbsp; &amp;nbsp; &amp;nbsp; &amp;nbsp; &amp;nbsp; 10.0.2.0/24&amp;nbsp; &amp;nbsp; &amp;nbsp;sb-1a-om-db&lt;br&gt;RDS Subnet4&amp;nbsp; &amp;nbsp; &amp;nbsp; &amp;nbsp; &amp;nbsp; &amp;nbsp; &amp;nbsp; &amp;nbsp; &amp;nbsp; &amp;nbsp; 10.0.3.0/24&amp;nbsp; &amp;nbsp; &amp;nbsp;sb-1c-om-db&amp;nbsp;&lt;/font&gt;&lt;br&gt;&lt;h1&gt;　&lt;/h1&gt;&lt;p&gt;&lt;br&gt;&lt;/p&gt;" style="text;html=1;strokeColor=none;fillColor=none;spacing=5;spacingTop=-20;whiteSpace=wrap;overflow=hidden;rounded=0;" parent="1" vertex="1">
          <mxGeometry x="590" y="10" width="360" height="160" as="geometry" />
        </mxCell>
        <mxCell id="ISlcmJgeb__mbXeuOqbF-18" value="&lt;h1&gt;Security Group&lt;/h1&gt;&lt;p&gt;EC2側&lt;/p&gt;&lt;p&gt;inbound rules&lt;/p&gt;&lt;p&gt;type　　　protocol　Port　　　source&lt;/p&gt;&lt;p&gt;http&amp;nbsp; &amp;nbsp; &amp;nbsp; &amp;nbsp; &amp;nbsp; &amp;nbsp; TCP&amp;nbsp; &amp;nbsp; &amp;nbsp; &amp;nbsp; &amp;nbsp;80&amp;nbsp; &amp;nbsp; &amp;nbsp; &amp;nbsp; &amp;nbsp; &amp;nbsp; &amp;nbsp;my IP&amp;nbsp; &amp;nbsp;&amp;nbsp;&lt;/p&gt;&lt;p&gt;ssh&amp;nbsp; &amp;nbsp; &amp;nbsp; &amp;nbsp; &amp;nbsp; &amp;nbsp; TCP&amp;nbsp; &amp;nbsp; &amp;nbsp; &amp;nbsp; &amp;nbsp; 22&amp;nbsp; &amp;nbsp; &amp;nbsp; &amp;nbsp; &amp;nbsp; &amp;nbsp; &amp;nbsp;my IP&lt;/p&gt;&lt;p&gt;outbound rules&lt;/p&gt;&lt;p&gt;&lt;br&gt;&lt;/p&gt;&lt;p&gt;DB側&lt;/p&gt;&lt;p&gt;inbound rules&lt;br&gt;&lt;/p&gt;&lt;p&gt;type　　　protocol　Port　　　source&lt;/p&gt;&lt;p&gt;Oracle&amp;nbsp; &amp;nbsp; &amp;nbsp; TCP   &amp;nbsp; &amp;nbsp;1521 &amp;nbsp; &amp;nbsp; &amp;nbsp; &amp;nbsp; 10.0.0.0/24&lt;/p&gt;&lt;p&gt;outbound rules&lt;/p&gt;" style="text;html=1;strokeColor=none;fillColor=none;spacing=5;spacingTop=-20;whiteSpace=wrap;overflow=hidden;rounded=0;" parent="1" vertex="1">
          <mxGeometry x="590" y="610" width="401.5" height="390" as="geometry" />
        </mxCell>
        <mxCell id="ISlcmJgeb__mbXeuOqbF-23" value="&lt;h1&gt;Internet　Gateway&lt;/h1&gt;&lt;p&gt;VPC attach&lt;/p&gt;&lt;p&gt;&lt;span style=&quot;font-size: 14px&quot;&gt;VPC&amp;nbsp; &amp;nbsp; &amp;nbsp; &amp;nbsp; &amp;nbsp; &amp;nbsp; &amp;nbsp; &amp;nbsp; &amp;nbsp; &amp;nbsp; &amp;nbsp; &amp;nbsp; &amp;nbsp; &amp;nbsp; &amp;nbsp; &amp;nbsp;10.0.0.0/16&lt;/span&gt;&lt;br&gt;&lt;/p&gt;" style="text;html=1;strokeColor=none;fillColor=none;spacing=5;spacingTop=-20;whiteSpace=wrap;overflow=hidden;rounded=0;" parent="1" vertex="1">
          <mxGeometry x="590" y="160" width="370" height="90" as="geometry" />
        </mxCell>
        <mxCell id="ISlcmJgeb__mbXeuOqbF-24" value="&lt;h1&gt;Route&amp;nbsp; Table&lt;/h1&gt;&lt;div&gt;internet gateway&amp;nbsp; 追加&lt;/div&gt;&lt;div&gt;ルート&lt;/div&gt;&lt;div&gt;送信先　　　　　　　ターゲット&lt;/div&gt;&lt;div&gt;&lt;span&gt;0.0.0.0/0&amp;nbsp; &amp;nbsp; &amp;nbsp; &amp;nbsp; &amp;nbsp; &amp;nbsp; &amp;nbsp; &amp;nbsp; &amp;nbsp; &amp;nbsp; &amp;nbsp; igw-xxxxxxxxxxx&lt;/span&gt;&lt;/div&gt;&lt;div&gt;&lt;span&gt;&lt;br&gt;&lt;/span&gt;&lt;/div&gt;&lt;div&gt;&lt;span&gt;サブネットの関連付け&lt;/span&gt;&lt;/div&gt;&lt;div&gt;&lt;span&gt;subnet&lt;/span&gt;&lt;/div&gt;&lt;div&gt;10.0.0.0/24&amp;nbsp; 1a&lt;/div&gt;&lt;div&gt;10.0.1.0/24&amp;nbsp; 1c&lt;/div&gt;&lt;p&gt;&lt;br&gt;&lt;/p&gt;" style="text;html=1;strokeColor=none;fillColor=none;spacing=5;spacingTop=-20;whiteSpace=wrap;overflow=hidden;rounded=0;" parent="1" vertex="1">
          <mxGeometry x="590" y="280" width="440" height="190" as="geometry" />
        </mxCell>
        <mxCell id="ISlcmJgeb__mbXeuOqbF-27" value="10.0.1.0/24" style="text;html=1;strokeColor=none;fillColor=none;align=center;verticalAlign=middle;whiteSpace=wrap;rounded=0;" parent="1" vertex="1">
          <mxGeometry x="324" y="604.3" width="90" height="20" as="geometry" />
        </mxCell>
        <mxCell id="ISlcmJgeb__mbXeuOqbF-28" value="10.0.3.0/24" style="text;html=1;strokeColor=none;fillColor=none;align=center;verticalAlign=middle;whiteSpace=wrap;rounded=0;" parent="1" vertex="1">
          <mxGeometry x="324" y="860" width="90" height="20" as="geometry" />
        </mxCell>
        <mxCell id="ISlcmJgeb__mbXeuOqbF-29" value="&lt;h1&gt;RDS Subnet group&lt;/h1&gt;&lt;div&gt;availability‐zone　　&amp;nbsp; &amp;nbsp;subnet&lt;/div&gt;&lt;p&gt;ap-northeast-1c&amp;nbsp; &amp;nbsp; &amp;nbsp; &amp;nbsp; &amp;nbsp; &amp;nbsp;10.0,3.0/24&lt;/p&gt;&lt;p&gt;ap-northeast-1a&amp;nbsp; &amp;nbsp; &amp;nbsp; &amp;nbsp; &amp;nbsp; &amp;nbsp;10.0.2.0/24&lt;/p&gt;" style="text;html=1;strokeColor=none;fillColor=none;spacing=5;spacingTop=-20;whiteSpace=wrap;overflow=hidden;rounded=0;" parent="1" vertex="1">
          <mxGeometry x="587" y="474.3" width="240" height="130" as="geometry" />
        </mxCell>
        <mxCell id="ISlcmJgeb__mbXeuOqbF-33" style="edgeStyle=orthogonalEdgeStyle;rounded=0;orthogonalLoop=1;jettySize=auto;html=1;startArrow=none;startFill=0;" parent="1" source="ISlcmJgeb__mbXeuOqbF-30" target="ISlcmJgeb__mbXeuOqbF-16" edge="1">
          <mxGeometry relative="1" as="geometry" />
        </mxCell>
        <mxCell id="ISlcmJgeb__mbXeuOqbF-36" style="edgeStyle=orthogonalEdgeStyle;rounded=0;orthogonalLoop=1;jettySize=auto;html=1;startArrow=none;startFill=0;" parent="1" source="ISlcmJgeb__mbXeuOqbF-30" target="ISlcmJgeb__mbXeuOqbF-35" edge="1">
          <mxGeometry relative="1" as="geometry" />
        </mxCell>
        <mxCell id="ISlcmJgeb__mbXeuOqbF-30" value="" style="shape=mxgraph.cisco.computers_and_peripherals.pc;html=1;pointerEvents=1;dashed=0;fillColor=#036897;strokeColor=#ffffff;strokeWidth=2;verticalLabelPosition=bottom;verticalAlign=top;align=center;outlineConnect=0;" parent="1" vertex="1">
          <mxGeometry x="39.18000000000001" y="50" width="84.29" height="100" as="geometry" />
        </mxCell>
        <mxCell id="ISlcmJgeb__mbXeuOqbF-43" style="edgeStyle=orthogonalEdgeStyle;rounded=0;orthogonalLoop=1;jettySize=auto;html=1;entryX=0.171;entryY=0.133;entryDx=0;entryDy=0;entryPerimeter=0;startArrow=none;startFill=0;" parent="1" source="ISlcmJgeb__mbXeuOqbF-35" target="ISlcmJgeb__mbXeuOqbF-11" edge="1">
          <mxGeometry relative="1" as="geometry" />
        </mxCell>
        <mxCell id="ISlcmJgeb__mbXeuOqbF-35" value="" style="outlineConnect=0;dashed=0;verticalLabelPosition=bottom;verticalAlign=top;align=center;html=1;shape=mxgraph.aws3.s3;fillColor=#E05243;gradientColor=none;" parent="1" vertex="1">
          <mxGeometry x="43.07999999999999" y="270" width="76.5" height="93" as="geometry" />
        </mxCell>
      </root>
    </mxGraphModel>
  </diagram>
</mxfile>
